0
SECTION
2
HEADER
9
$INSUNITS
70
4
9
$EXTMIN
10
0
20
0
9
$EXTMAX
10
20
20
18.491
0
ENDSEC
0
SECTION
2
TABLES
0
ENDSEC
0
SECTION
2
ENTITIES
0
LWPOLYLINE
8
EXOANCHOR_SILK
90
4
70
1
10
11.362
20
18.491
10
9.103
20
17.737
10
8.694
20
13.914
10
10.784
20
15.478
0
LWPOLYLINE
8
EXOANCHOR_SILK
90
5
70
1
10
11.362
20
14.668
10
9.159
20
13.159
10
9.625
20
8.754
10
10.435
20
8.172
10
12.349
20
11.418
0
LWPOLYLINE
8
EXOANCHOR_SILK
90
5
70
1
10
3.828
20
10.491
10
5.392
20
7.362
10
7.884
20
5.737
10
7.884
20
8.056
10
6.491
20
10.03
0
LWPOLYLINE
8
EXOANCHOR_SILK
90
5
70
1
10
16.405
20
10.203
10
14.375
20
10.03
10
13.159
20
8.578
10
14.086
20
7.595
10
15.478
20
8.405
0
LWPOLYLINE
8
EXOANCHOR_SILK
90
6
70
1
10
12.578
20
7.073
10
11.767
20
7.595
10
10.435
20
7.478
10
9.853
20
7.013
10
10.03
20
5.853
10
11.073
20
5.509
0
LWPOLYLINE
8
EXOANCHOR_SILK
90
4
70
1
10
0
20
6.608
10
2.957
20
3.19
10
6.897
20
2.957
10
4.172
20
5.853
0
LWPOLYLINE
8
EXOANCHOR_SILK
90
4
70
1
10
20
20
6.552
10
15.129
20
5.509
10
12.754
20
3.013
10
16.987
20
3.129
0
LWPOLYLINE
8
EXOANCHOR_SILK
90
4
70
1
10
4.987
20
2.03
10
9.159
20
0
10
8
20
1.509
10
6.841
20
2.319
0
LWPOLYLINE
8
EXOANCHOR_SILK
90
4
70
1
10
14.724
20
2.03
10
12.871
20
2.319
10
11.944
20
1.797
10
10.491
20
0
0
LWPOLYLINE
8
EXOANCHOR_SILK
90
4
70
1
10
9.914
20
4.638
10
10.957
20
3.595
10
9.914
20
2.552
10
8.871
20
3.595
0
ENDSEC
0
EOF
