0
SECTION
2
HEADER
9
$INSUNITS
70
4
9
$EXTMIN
10
0
20
0
9
$EXTMAX
10
10
20
9.246
0
ENDSEC
0
SECTION
2
TABLES
0
ENDSEC
0
SECTION
2
ENTITIES
0
LWPOLYLINE
8
EXOANCHOR_SILK
90
4
70
1
10
5.681
20
9.246
10
4.552
20
8.869
10
4.347
20
6.957
10
5.392
20
7.739
0
LWPOLYLINE
8
EXOANCHOR_SILK
90
5
70
1
10
5.681
20
7.334
10
4.58
20
6.58
10
4.812
20
4.377
10
5.218
20
4.086
10
6.175
20
5.709
0
LWPOLYLINE
8
EXOANCHOR_SILK
90
5
70
1
10
1.914
20
5.246
10
2.696
20
3.681
10
3.942
20
2.869
10
3.942
20
4.028
10
3.246
20
5.015
0
LWPOLYLINE
8
EXOANCHOR_SILK
90
5
70
1
10
8.203
20
5.101
10
7.188
20
5.015
10
6.58
20
4.289
10
7.043
20
3.797
10
7.739
20
4.203
0
LWPOLYLINE
8
EXOANCHOR_SILK
90
6
70
1
10
6.289
20
3.537
10
5.884
20
3.797
10
5.218
20
3.739
10
4.927
20
3.506
10
5.015
20
2.927
10
5.537
20
2.754
0
LWPOLYLINE
8
EXOANCHOR_SILK
90
4
70
1
10
0
20
3.304
10
1.478
20
1.595
10
3.448
20
1.478
10
2.086
20
2.927
0
LWPOLYLINE
8
EXOANCHOR_SILK
90
4
70
1
10
10
20
3.276
10
7.565
20
2.754
10
6.377
20
1.506
10
8.494
20
1.565
0
LWPOLYLINE
8
EXOANCHOR_SILK
90
4
70
1
10
2.494
20
1.015
10
4.58
20
0
10
4
20
0.754
10
3.42
20
1.159
0
LWPOLYLINE
8
EXOANCHOR_SILK
90
4
70
1
10
7.362
20
1.015
10
6.435
20
1.159
10
5.972
20
0.899
10
5.246
20
0
0
LWPOLYLINE
8
EXOANCHOR_SILK
90
4
70
1
10
4.957
20
2.319
10
5.478
20
1.797
10
4.957
20
1.276
10
4.435
20
1.797
0
ENDSEC
0
EOF
